<svg width="64" height="64" viewBox="0 0 64 64" fill="none" xmlns="http://www.w3.org/2000/svg">
    <defs>
        <linearGradient id="grad" x1="0%" y1="0%" x2="100%" y2="100%">
            <stop offset="0%" stop-color="#2563EB" />
            <stop offset="100%" stop-color="#60A5FA" />
        </linearGradient>

        <filter id="glow" x="-50%" y="-50%" width="200%" height="200%">
            <feGaussianBlur stdDeviation="4" result="blur"/>
            <feComposite in="SourceGraphic" in2="blur" operator="over"/>
        </filter>
    </defs>

    <g transform="translate(32, 32) rotate(-6) translate(-32, -32)">

        <rect x="14" y="14" width="36" height="36" rx="10" fill="#2563EB" fill-opacity="0.4" filter="url(#glow)" />

        <rect x="14" y="14" width="36" height="36" rx="10"
              fill="url(#grad)"
              stroke="rgba(147, 197, 253, 0.3)"
              stroke-width="1.5" />

        <g transform="translate(20, 20) scale(1.0)">
            <rect x="2" y="2" width="20" height="20" rx="2.18" ry="2.18" stroke="white" stroke-width="2.5" stroke-linecap="round" stroke-linejoin="round"/>
            <line x1="7" y1="2" x2="7" y2="22" stroke="white" stroke-width="2.5" stroke-linecap="round" stroke-linejoin="round"/>
            <line x1="17" y1="2" x2="17" y2="22" stroke="white" stroke-width="2.5" stroke-linecap="round" stroke-linejoin="round"/>
            <line x1="2" y1="12" x2="22" y2="12" stroke="white" stroke-width="2.5" stroke-linecap="round" stroke-linejoin="round"/>
            <line x1="2" y1="7" x2="7" y2="7" stroke="white" stroke-width="2.5" stroke-linecap="round" stroke-linejoin="round"/>
            <line x1="2" y1="17" x2="7" y2="17" stroke="white" stroke-width="2.5" stroke-linecap="round" stroke-linejoin="round"/>
            <line x1="17" y1="17" x2="22" y2="17" stroke="white" stroke-width="2.5" stroke-linecap="round" stroke-linejoin="round"/>
            <line x1="17" y1="7" x2="22" y2="7" stroke="white" stroke-width="2.5" stroke-linecap="round" stroke-linejoin="round"/>
        </g>

        <g transform="translate(38, 38) scale(0.6)">
            <path d="M20.2 6 3 11l-.9-2.5c-.6-1.1 0-2.4 1.1-2.9l.4-.2c1.1-.6 2.4 0 2.9 1.1L20.2 6Z" stroke="#BFDBFE" stroke-width="3" stroke-linecap="round" stroke-linejoin="round"/>
            <path d="M4 11v9a2 2 0 0 0 2 2h12a2 2 0 0 0 2-2v-9" stroke="#BFDBFE" stroke-width="3" stroke-linecap="round" stroke-linejoin="round"/>
        </g>

    </g>
</svg>